<svg xmlns="http://www.w3.org/2000/svg" width="24" height="24" fill="none" viewBox="0 0 24 24" id="buzznet"><path fill="url(#paint0_linear_1233_4245)" fill-rule="evenodd" d="M3 12C3 7.02944 7.02944 3 12 3C16.9706 3 21 7.02944 21 12C21 16.9706 16.9706 21 12 21C7.02944 21 3 16.9706 3 12ZM12 1C5.92487 1 1 5.92487 1 12C1 18.0751 5.92487 23 12 23C18.0751 23 23 18.0751 23 12C23 5.92487 18.0751 1 12 1ZM8.92308 5C8.42431 5 8.0018 5.36753 7.93272 5.86149L7.00964 12.4615C6.96956 12.7481 7.05559 13.038 7.24551 13.2563C7.43543 13.4746 7.71062 13.6 8 13.6H9.46154V18C9.46154 18.4352 9.74304 18.8205 10.1577 18.9527C10.5724 19.085 11.0249 18.9338 11.2769 18.579L16.8154 10.779C17.0319 10.4739 17.0602 10.0736 16.8885 9.74117C16.7169 9.40879 16.3741 9.2 16 9.2H14.9697L16.0159 6.34395C16.1283 6.03725 16.0837 5.69502 15.8967 5.42727C15.7096 5.15952 15.4036 5 15.0769 5H8.92308ZM9.14959 11.6L9.79295 7H13.6456L12.5995 9.85605C12.4871 10.1627 12.5316 10.505 12.7187 10.7727C12.9058 11.0405 13.2118 11.2 13.5385 11.2H14.0635L11.4615 14.8644V12.6C11.4615 12.0477 11.0138 11.6 10.4615 11.6H9.14959Z" clip-rule="evenodd"></path><defs><linearGradient id="paint0_linear_1233_4245" x1="12" x2="12" y1="1" y2="23" gradientUnits="userSpaceOnUse"><stop stop-color="#AB58FF"></stop><stop offset="1" stop-color="#6A3093"></stop></linearGradient></defs></svg>